<?xml version="1.0" encoding="utf-8"?><svg width="216" height="166" xmlns="http://www.w3.org/2000/svg" xmlns:xlink="http://www.w3.org/1999/xlink" overflow="hidden"><defs><clipPath id="clip0"><rect x="103" y="277" width="216" height="166"/></clipPath></defs><g clip-path="url(#clip0)" transform="translate(-103 -277)"><path d="M112 278 238 278 238 314.268 198.055 314.268 198.055 417 151.745 417 151.745 314.268 112 314.268 112 278Z" fill="#FF6A00" fill-rule="evenodd"/><path d="M208 324 267.7 324C282.087 324.116 293.435 326.829 301.745 332.139 310.055 337.449 314.295 344.663 314.467 353.78 314.397 359.69 312.603 364.893 309.084 369.387 305.565 373.882 300.743 377.101 294.616 379.046 301.773 380.759 307.437 384.272 311.607 389.585 315.778 394.897 317.909 401.318 318 408.849 317.821 419.066 313.51 427.116 305.067 432.998 296.625 438.88 285.122 441.881 270.56 442L208 442 208 324ZM246.84 352.6 246.84 369.458 265.513 369.458C268.24 369.426 270.399 368.646 271.99 367.119 273.581 365.591 274.394 363.505 274.429 360.86 274.394 358.304 273.581 356.295 271.99 354.834 270.399 353.373 268.24 352.628 265.513 352.6L246.84 352.6ZM246.84 395.364 246.84 413.4 265.513 413.4C269.175 413.365 272.07 412.508 274.198 410.829 276.325 409.151 277.411 406.861 277.457 403.96 277.411 401.316 276.325 399.23 274.198 397.703 272.07 396.175 269.175 395.396 265.513 395.364L246.84 395.364Z" fill="#FF6A00" fill-rule="evenodd"/><path d="M103 278 229 278 229 314.268 189.055 314.268 189.055 417 142.745 417 142.745 314.268 103 314.268 103 278Z" fill="#FFFFFF" fill-rule="evenodd"/><path d="M199 324 258.7 324C273.087 324.116 284.435 326.829 292.745 332.139 301.055 337.449 305.295 344.663 305.467 353.78 305.397 359.69 303.603 364.893 300.084 369.387 296.565 373.882 291.743 377.101 285.616 379.046 292.773 380.759 298.437 384.272 302.607 389.585 306.778 394.897 308.909 401.318 309 408.849 308.821 419.066 304.51 427.116 296.067 432.998 287.625 438.88 276.122 441.881 261.56 442L199 442 199 324ZM237.84 352.6 237.84 369.458 256.513 369.458C259.24 369.426 261.399 368.646 262.99 367.119 264.581 365.591 265.394 363.505 265.429 360.86 265.394 358.304 264.581 356.295 262.99 354.834 261.399 353.373 259.24 352.628 256.513 352.6L237.84 352.6ZM237.84 395.364 237.84 413.4 256.513 413.4C260.175 413.365 263.07 412.508 265.198 410.829 267.325 409.151 268.411 406.861 268.457 403.96 268.411 401.316 267.325 399.23 265.198 397.703 263.07 396.175 260.175 395.396 256.513 395.364L237.84 395.364Z" fill="#FFFFFF" fill-rule="evenodd"/></g></svg>