<?xml version="1.0" encoding="utf-8"?><svg width="701" height="615" xmlns="http://www.w3.org/2000/svg" xmlns:xlink="http://www.w3.org/1999/xlink" overflow="hidden"><defs><filter id="fx0" x="-10%" y="-10%" width="120%" height="120%" filterUnits="userSpaceOnUse" primitiveUnits="userSpaceOnUse"><feComponentTransfer color-interpolation-filters="sRGB"><feFuncR type="discrete" tableValues="0 0"/><feFuncG type="discrete" tableValues="0 0"/><feFuncB type="discrete" tableValues="0 0"/><feFuncA type="linear" slope="0.329412" intercept="0"/></feComponentTransfer><feGaussianBlur stdDeviation="0 0"/></filter><filter id="fx1" x="-10%" y="-10%" width="120%" height="120%" filterUnits="userSpaceOnUse" primitiveUnits="userSpaceOnUse"><feComponentTransfer color-interpolation-filters="sRGB"><feFuncR type="discrete" tableValues="0 0"/><feFuncG type="discrete" tableValues="0 0"/><feFuncB type="discrete" tableValues="0 0"/><feFuncA type="linear" slope="0.329412" intercept="0"/></feComponentTransfer><feGaussianBlur stdDeviation="0 0"/></filter><filter id="fx2" x="-10%" y="-10%" width="120%" height="120%" filterUnits="userSpaceOnUse" primitiveUnits="userSpaceOnUse"><feComponentTransfer color-interpolation-filters="sRGB"><feFuncR type="discrete" tableValues="0 0"/><feFuncG type="discrete" tableValues="0 0"/><feFuncB type="discrete" tableValues="0 0"/><feFuncA type="linear" slope="0.329412" intercept="0"/></feComponentTransfer><feGaussianBlur stdDeviation="0 0"/></filter><filter id="fx3" x="-10%" y="-10%" width="120%" height="120%" filterUnits="userSpaceOnUse" primitiveUnits="userSpaceOnUse"><feComponentTransfer color-interpolation-filters="sRGB"><feFuncR type="discrete" tableValues="0 0"/><feFuncG type="discrete" tableValues="0 0"/><feFuncB type="discrete" tableValues="0 0"/><feFuncA type="linear" slope="0.329412" intercept="0"/></feComponentTransfer><feGaussianBlur stdDeviation="0 0"/></filter><filter id="fx4" x="-10%" y="-10%" width="120%" height="120%" filterUnits="userSpaceOnUse" primitiveUnits="userSpaceOnUse"><feComponentTransfer color-interpolation-filters="sRGB"><feFuncR type="discrete" tableValues="0 0"/><feFuncG type="discrete" tableValues="0 0"/><feFuncB type="discrete" tableValues="0 0"/><feFuncA type="linear" slope="0.329412" intercept="0"/></feComponentTransfer><feGaussianBlur stdDeviation="0 0"/></filter><filter id="fx5" x="-10%" y="-10%" width="120%" height="120%" filterUnits="userSpaceOnUse" primitiveUnits="userSpaceOnUse"><feComponentTransfer color-interpolation-filters="sRGB"><feFuncR type="discrete" tableValues="0 0"/><feFuncG type="discrete" tableValues="0 0"/><feFuncB type="discrete" tableValues="0 0"/><feFuncA type="linear" slope="0.329412" intercept="0"/></feComponentTransfer><feGaussianBlur stdDeviation="0 0"/></filter><filter id="fx6" x="-10%" y="-10%" width="120%" height="120%" filterUnits="userSpaceOnUse" primitiveUnits="userSpaceOnUse"><feComponentTransfer color-interpolation-filters="sRGB"><feFuncR type="discrete" tableValues="0 0"/><feFuncG type="discrete" tableValues="0 0"/><feFuncB type="discrete" tableValues="0 0"/><feFuncA type="linear" slope="0.329412" intercept="0"/></feComponentTransfer><feGaussianBlur stdDeviation="0 0"/></filter><filter id="fx7" x="-10%" y="-10%" width="120%" height="120%" filterUnits="userSpaceOnUse" primitiveUnits="userSpaceOnUse"><feComponentTransfer color-interpolation-filters="sRGB"><feFuncR type="discrete" tableValues="0 0"/><feFuncG type="discrete" tableValues="0 0"/><feFuncB type="discrete" tableValues="0 0"/><feFuncA type="linear" slope="0.329412" intercept="0"/></feComponentTransfer><feGaussianBlur stdDeviation="0 0"/></filter><filter id="fx8" x="-10%" y="-10%" width="120%" height="120%" filterUnits="userSpaceOnUse" primitiveUnits="userSpaceOnUse"><feComponentTransfer color-interpolation-filters="sRGB"><feFuncR type="discrete" tableValues="0 0"/><feFuncG type="discrete" tableValues="0 0"/><feFuncB type="discrete" tableValues="0 0"/><feFuncA type="linear" slope="0.329412" intercept="0"/></feComponentTransfer><feGaussianBlur stdDeviation="0 0"/></filter><filter id="fx9" x="-10%" y="-10%" width="120%" height="120%" filterUnits="userSpaceOnUse" primitiveUnits="userSpaceOnUse"><feComponentTransfer color-interpolation-filters="sRGB"><feFuncR type="discrete" tableValues="0 0"/><feFuncG type="discrete" tableValues="0 0"/><feFuncB type="discrete" tableValues="0 0"/><feFuncA type="linear" slope="0.329412" intercept="0"/></feComponentTransfer><feGaussianBlur stdDeviation="0 0"/></filter><filter id="fx10" x="-10%" y="-10%" width="120%" height="120%" filterUnits="userSpaceOnUse" primitiveUnits="userSpaceOnUse"><feComponentTransfer color-interpolation-filters="sRGB"><feFuncR type="discrete" tableValues="0 0"/><feFuncG type="discrete" tableValues="0 0"/><feFuncB type="discrete" tableValues="0 0"/><feFuncA type="linear" slope="0.329412" intercept="0"/></feComponentTransfer><feGaussianBlur stdDeviation="0 0"/></filter><filter id="fx11" x="-10%" y="-10%" width="120%" height="120%" filterUnits="userSpaceOnUse" primitiveUnits="userSpaceOnUse"><feComponentTransfer color-interpolation-filters="sRGB"><feFuncR type="discrete" tableValues="0 0"/><feFuncG type="discrete" tableValues="0 0"/><feFuncB type="discrete" tableValues="0 0"/><feFuncA type="linear" slope="0.329412" intercept="0"/></feComponentTransfer><feGaussianBlur stdDeviation="0 0"/></filter><filter id="fx12" x="-10%" y="-10%" width="120%" height="120%" filterUnits="userSpaceOnUse" primitiveUnits="userSpaceOnUse"><feComponentTransfer color-interpolation-filters="sRGB"><feFuncR type="discrete" tableValues="0 0"/><feFuncG type="discrete" tableValues="0 0"/><feFuncB type="discrete" tableValues="0 0"/><feFuncA type="linear" slope="0.329412" intercept="0"/></feComponentTransfer><feGaussianBlur stdDeviation="0 0"/></filter><clipPath id="clip13"><rect x="301" y="90" width="701" height="615"/></clipPath><clipPath id="clip14"><rect x="1" y="1" width="142" height="177"/></clipPath><clipPath id="clip15"><rect x="0" y="0" width="144" height="179"/></clipPath><clipPath id="clip16"><rect x="1" y="1" width="108" height="131"/></clipPath><clipPath id="clip17"><rect x="0" y="0" width="110" height="133"/></clipPath><clipPath id="clip18"><rect x="1" y="1" width="114" height="131"/></clipPath><clipPath id="clip19"><rect x="0" y="0" width="116" height="133"/></clipPath><clipPath id="clip20"><rect x="1" y="1" width="105" height="131"/></clipPath><clipPath id="clip21"><rect x="0" y="0" width="107" height="133"/></clipPath><clipPath id="clip22"><rect x="1" y="1" width="143" height="177"/></clipPath><clipPath id="clip23"><rect x="0" y="0" width="145" height="179"/></clipPath><clipPath id="clip24"><rect x="1" y="1" width="138" height="132"/></clipPath><clipPath id="clip25"><rect x="0" y="0" width="140" height="134"/></clipPath><clipPath id="clip26"><rect x="1" y="1" width="137" height="131"/></clipPath><clipPath id="clip27"><rect x="0" y="0" width="139" height="133"/></clipPath><clipPath id="clip28"><rect x="1" y="1" width="108" height="131"/></clipPath><clipPath id="clip29"><rect x="0" y="0" width="110" height="133"/></clipPath><clipPath id="clip30"><rect x="0" y="0" width="47" height="69"/></clipPath><clipPath id="clip31"><rect x="0" y="0" width="47" height="70"/></clipPath><clipPath id="clip32"><rect x="1" y="1" width="121" height="131"/></clipPath><clipPath id="clip33"><rect x="0" y="0" width="123" height="133"/></clipPath><clipPath id="clip34"><rect x="1" y="1" width="114" height="131"/></clipPath><clipPath id="clip35"><rect x="0" y="0" width="116" height="133"/></clipPath><clipPath id="clip36"><rect x="1" y="1" width="114" height="264"/></clipPath><clipPath id="clip37"><rect x="0" y="0" width="115" height="265"/></clipPath><clipPath id="clip38"><rect x="0" y="1" width="53" height="36"/></clipPath><clipPath id="clip39"><rect x="0" y="0" width="54" height="38"/></clipPath></defs><g clip-path="url(#clip13)" transform="translate(-301 -90)"><path d="M520.763 90.7251 889.66 189.571 751.875 703.791 382.978 604.945Z" fill="#404040" fill-rule="evenodd"/><path d="M536.673 132.929 854.779 218.165 728.976 687.671 410.869 602.434Z" fill="#0D0D0D" fill-rule="evenodd"/><path d="M666.772 100.398 758.375 124.943 753.892 163.861 775.248 169.583 768.304 195.498 622.897 156.536 629.84 130.622 651.196 136.344 666.772 100.398ZM710.259 121.309C701.91 119.072 693.329 124.026 691.092 132.375 688.855 140.724 693.81 149.305 702.158 151.542 710.507 153.779 719.088 148.825 721.325 140.476 723.562 132.127 718.608 123.546 710.259 121.309Z" fill="#595959" fill-rule="evenodd"/><path d="M542.252 199.322 813.646 272.042 806.165 299.961 534.771 227.241Z" fill="#404040" fill-rule="evenodd"/><path d="M532.857 234.383 756.358 294.27 753.923 303.359 530.422 243.473Z" fill="#404040" fill-rule="evenodd"/><path d="M528.508 250.615 752.009 310.501 749.573 319.591 526.073 259.704Z" fill="#404040" fill-rule="evenodd"/><path d="M571.269 282.601 794.77 342.488 787.289 370.406 563.788 310.519Z" fill="#404040" fill-rule="evenodd"/><path d="M562.483 315.389 747.525 364.971 745.089 374.06 560.048 324.479Z" fill="#404040" fill-rule="evenodd"/><path d="M558.134 331.621 705.442 371.092 703.006 380.181 555.699 340.71Z" fill="#404040" fill-rule="evenodd"/><path d="M503.187 345.114 774.581 417.834 767.1 445.753 495.706 373.033Z" fill="#404040" fill-rule="evenodd"/><path d="M493.793 380.174 618.037 413.466 615.745 422.019 491.501 388.728Z" fill="#404040" fill-rule="evenodd"/><path d="M489.443 396.406 712.944 456.293 710.509 465.383 487.008 405.496Z" fill="#404040" fill-rule="evenodd"/><path d="M532.204 428.392 755.705 488.279 748.224 516.198 524.723 456.311Z" fill="#404040" fill-rule="evenodd"/><path d="M523.419 461.181 622.081 487.617 619.645 496.707 520.983 470.271Z" fill="#404040" fill-rule="evenodd"/><path d="M519.069 477.412 666.377 516.883 663.941 525.973 516.634 486.502Z" fill="#404040" fill-rule="evenodd"/><path d="M545.511 502.084 738.174 553.708 730.693 581.627 538.03 530.003Z" fill="#404040" fill-rule="evenodd"/><path d="M536.725 534.873 653.194 566.081 650.759 575.17 534.289 543.962Z" fill="#404040" fill-rule="evenodd"/><g clip-path="url(#clip14)" filter="url(#fx0)" transform="translate(328 206)"><g clip-path="url(#clip15)"><path d="M1 1 143 1 143 27.7761 86.7951 27.7761 86.7951 178 56.9518 178 56.9518 27.7761 1 27.7761 1 1Z" fill="#FF6A00" fill-rule="evenodd"/></g></g><path d="M309 207 451 207 451 233.776 394.795 233.776 394.795 384 364.952 384 364.952 233.776 309 233.776 309 207Z" fill="#FF6A00" fill-rule="evenodd"/><g clip-path="url(#clip16)" filter="url(#fx1)" transform="translate(428 252)"><g clip-path="url(#clip17)"><path d="M1 1 54.0652 1C70.901 1.08485 83.866 4.98145 92.9602 12.6898 102.054 20.3982 106.653 31.4092 106.757 45.7229 106.715 56.2481 104.373 65.1091 99.7322 72.3054 95.0913 79.5019 88.4068 84.802 79.6786 88.2059L109 132 83.9788 132 60.048 92.319C59.1093 92.4084 58.1355 92.463 57.1266 92.4825 56.1179 92.5019 55.0974 92.5098 54.0652 92.506L23.0298 92.506 23.0298 132 1 132 1 1ZM23.0298 20.8174 23.0298 72.6885 54.0652 72.6885C64.2234 72.7003 72.0445 70.5234 77.5289 66.1578 83.0131 61.7923 85.7865 55.1679 85.8489 46.2847 85.7865 37.6861 83.0131 31.2882 77.5289 27.0905 72.0445 22.8927 64.2234 20.8017 54.0652 20.8174L23.0298 20.8174Z" fill="#FF6A00" fill-rule="evenodd"/></g></g><path d="M409 253 462.065 253C478.901 253.085 491.866 256.981 500.96 264.69 510.054 272.398 514.653 283.409 514.757 297.723 514.715 308.248 512.373 317.109 507.732 324.305 503.091 331.502 496.407 336.802 487.679 340.206L517 384 491.979 384 468.048 344.319C467.109 344.408 466.136 344.463 465.127 344.482 464.118 344.502 463.097 344.51 462.065 344.506L431.03 344.506 431.03 384 409 384 409 253ZM431.03 272.817 431.03 324.689 462.065 324.689C472.223 324.7 480.045 322.523 485.529 318.158 491.013 313.792 493.786 307.168 493.849 298.285 493.786 289.686 491.013 283.288 485.529 279.091 480.045 274.893 472.223 272.802 462.065 272.817L431.03 272.817Z" fill="#FF6A00" fill-rule="evenodd"/><g clip-path="url(#clip18)" filter="url(#fx2)" transform="translate(545 252)"><g clip-path="url(#clip19)"><path d="M1 1 23.0698 1 23.0698 77.198C23.1906 88.256 26.3668 96.8515 32.5983 102.985 38.8297 109.117 47.3907 112.23 58.2809 112.323 69.0658 112.242 77.5098 109.152 83.6124 103.054 89.715 96.956 92.8209 88.3373 92.9302 77.198L92.9302 1 115 1 115 77.198C114.841 94.3609 109.782 107.746 99.8209 117.353 89.8603 126.96 75.9512 131.842 58.0937 132 40.2281 131.842 26.2878 126.96 16.2726 117.353 6.25736 107.746 1.16644 94.3609 1 77.198L1 1Z" fill="#FF6A00" fill-rule="evenodd"/></g></g><path d="M526 253 548.07 253 548.07 329.198C548.191 340.256 551.367 348.851 557.598 354.985 563.83 361.117 572.391 364.23 583.281 364.323 594.066 364.242 602.51 361.152 608.612 355.054 614.715 348.956 617.821 340.337 617.93 329.198L617.93 253 640 253 640 329.198C639.841 346.361 634.782 359.746 624.821 369.353 614.86 378.96 600.951 383.842 583.094 384 565.228 383.842 551.288 378.96 541.273 369.353 531.257 359.746 526.166 346.361 526 329.198L526 253Z" fill="#FF6A00" fill-rule="evenodd"/><g clip-path="url(#clip20)" filter="url(#fx3)" transform="translate(668 252)"><g clip-path="url(#clip21)"><path d="M1 1 106 1 106 20.8174 64.4398 20.8174 64.4398 132 42.3728 132 42.3728 20.8174 1 20.8174 1 1Z" fill="#FF6A00" fill-rule="evenodd"/></g></g><path d="M649 253 754 253 754 272.817 712.44 272.817 712.44 384 690.373 384 690.373 272.817 649 272.817 649 253Z" fill="#FF6A00" fill-rule="evenodd"/><g clip-path="url(#clip22)" filter="url(#fx4)" transform="translate(321 346)"><g clip-path="url(#clip23)"><path d="M1 1 77.8104 1C96.3167 1.12052 110.792 5.04764 121.236 12.7818 131.68 20.5159 136.994 31.3346 137.177 45.238 137.082 55.2184 134.305 63.6628 128.846 70.5709 123.386 77.479 115.812 82.1882 106.123 84.6983 118.087 86.8449 127.368 91.8369 133.964 99.6748 140.56 107.512 143.905 117.441 144 129.461 143.812 144.762 138.066 156.646 126.765 165.112 115.463 173.579 99.7348 177.874 79.5801 178L1 178 1 1ZM30.7877 27.7761 30.7877 74.3416 76.2934 74.3416C85.853 74.2995 93.2793 72.2327 98.5726 68.1413 103.866 64.0501 106.552 58.187 106.631 50.5526 106.552 43.1659 103.866 37.5034 98.5726 33.5653 93.2793 29.627 85.853 27.6972 76.2934 27.7761L30.7877 27.7761ZM30.7877 100.612 30.7877 151.224 76.2921 151.224C88.0159 151.298 97.1168 149.125 103.595 144.707 110.073 140.29 113.359 133.942 113.454 125.665 113.359 117.741 110.073 111.573 103.595 107.16 97.1168 102.747 88.0159 100.565 76.2921 100.612L30.7877 100.612Z" fill="#FFFFFF" fill-rule="evenodd"/></g></g><path d="M302 347 378.81 347C397.317 347.121 411.792 351.048 422.236 358.782 432.68 366.516 437.994 377.335 438.177 391.238 438.082 401.218 435.305 409.663 429.846 416.571 424.386 423.479 416.812 428.188 407.123 430.698 419.087 432.845 428.368 437.837 434.964 445.675 441.56 453.512 444.905 463.441 445 475.461 444.812 490.762 439.066 502.646 427.765 511.112 416.463 519.579 400.735 523.875 380.58 524L302 524 302 347ZM331.788 373.776 331.788 420.342 377.293 420.342C386.853 420.3 394.279 418.233 399.573 414.141 404.866 410.05 407.552 404.187 407.631 396.553 407.552 389.166 404.866 383.503 399.573 379.565 394.279 375.627 386.853 373.697 377.293 373.776L331.788 373.776ZM331.788 446.612 331.788 497.224 377.292 497.224C389.016 497.298 398.117 495.125 404.595 490.707 411.073 486.29 414.359 479.942 414.454 471.665 414.359 463.741 411.073 457.573 404.595 453.16 398.117 448.747 389.016 446.565 377.292 446.612L331.788 446.612Z" fill="#FFFFFF" fill-rule="evenodd"/><g clip-path="url(#clip24)" filter="url(#fx5)" transform="translate(464 392)"><g clip-path="url(#clip25)"><path d="M69.9998 1C83.0937 1.12167 94.8177 4.04601 105.172 9.77282 115.526 15.4996 123.719 23.2989 129.752 33.1708 135.786 43.0425 138.868 54.2566 139 66.8132 138.868 79.3743 135.786 90.6206 129.752 100.552 123.719 110.484 115.526 118.344 105.172 124.13 94.8177 129.917 83.0937 132.874 69.9998 133 56.9058 132.874 45.1819 129.917 34.828 124.13 24.4741 118.344 16.2806 110.484 10.2473 100.552 4.2141 90.6206 1.13178 79.3743 1 66.8132 1.13159 54.1979 4.2141 42.9562 10.2473 33.0879 16.2806 23.2195 24.4741 15.434 34.828 9.73129 45.1819 4.02863 56.9058 1.1182 69.9998 1ZM70.1858 20.7429C61.5238 20.8314 53.6678 22.8924 46.6181 26.9256 39.5685 30.9587 33.9453 36.4322 29.7486 43.3461 25.552 50.2599 23.402 58.0823 23.2985 66.8132 23.4054 75.5487 25.5691 83.4032 29.79 90.3771 34.0109 97.351 39.6478 102.884 46.7008 106.978 53.7539 111.071 61.5822 113.164 70.1858 113.257 78.7826 113.164 86.5627 111.071 93.5263 106.978 100.49 102.884 106.037 97.351 110.169 90.3771 114.3 83.4032 116.416 75.5487 116.516 66.8132 116.416 58.0823 114.3 50.2599 110.169 43.3461 106.037 36.4322 100.49 30.9587 93.5263 26.9256 86.5627 22.8924 78.7826 20.8314 70.1858 20.7429Z" fill="#FFFFFF" fill-rule="evenodd"/></g></g><path d="M514 393C527.094 393.122 538.818 396.046 549.172 401.773 559.526 407.5 567.719 415.299 573.752 425.171 579.786 435.043 582.868 446.257 583 458.813 582.868 471.374 579.786 482.621 573.752 492.552 567.719 502.484 559.526 510.344 549.172 516.13 538.818 521.917 527.094 524.874 514 525 500.906 524.874 489.182 521.917 478.828 516.13 468.474 510.344 460.281 502.484 454.247 492.552 448.214 482.621 445.132 471.374 445 458.813 445.132 446.198 448.214 434.956 454.247 425.088 460.281 415.219 468.474 407.434 478.828 401.731 489.182 396.029 500.906 393.118 514 393ZM514.186 412.743C505.524 412.831 497.668 414.892 490.618 418.926 483.568 422.959 477.945 428.432 473.749 435.346 469.552 442.26 467.402 450.082 467.298 458.813 467.405 467.549 469.569 475.403 473.79 482.377 478.011 489.351 483.648 494.884 490.701 498.978 497.754 503.071 505.582 505.164 514.186 505.257 522.783 505.164 530.563 503.071 537.526 498.978 544.49 494.884 550.037 489.351 554.169 482.377 558.3 475.403 560.416 467.549 560.516 458.813 560.416 450.082 558.3 442.26 554.169 435.346 550.037 428.432 544.49 422.959 537.526 418.926 530.563 414.892 522.783 412.831 514.186 412.743Z" fill="#FFFFFF" fill-rule="evenodd"/><g clip-path="url(#clip26)" filter="url(#fx6)" transform="translate(586 392)"><g clip-path="url(#clip27)"><path d="M58.5179 1 81.0409 1 138 132 114.546 132 102.075 102.426 36.3669 102.426 23.8955 132 1 132 58.5179 1ZM69.1279 24.5609 44.5571 82.7961 93.6985 82.7961 69.1279 24.5609Z" fill="#FFFFFF" fill-rule="evenodd"/></g></g><path d="M624.518 393 647.041 393 704 524 680.546 524 668.075 494.426 602.367 494.426 589.896 524 567 524 624.518 393ZM635.128 416.561 610.557 474.796 659.698 474.796 635.128 416.561Z" fill="#FFFFFF" fill-rule="evenodd"/><g clip-path="url(#clip28)" filter="url(#fx7)" transform="translate(731 392)"><g clip-path="url(#clip29)"><path d="M1 1 54.0652 1C70.9011 1.08485 83.8662 4.98145 92.9603 12.6898 102.054 20.3982 106.653 31.4092 106.757 45.7229 106.715 56.2481 104.373 65.1091 99.7322 72.3054 95.0915 79.5019 88.4069 84.802 79.679 88.2059L109 132 83.9788 132 60.0481 92.319C59.1094 92.4084 58.1356 92.463 57.1267 92.4825 56.118 92.5019 55.0975 92.5098 54.0652 92.506L23.03 92.506 23.03 132 1 132 1 1ZM23.03 20.8174 23.03 72.6885 54.0652 72.6885C64.2233 72.7003 72.0447 70.5234 77.5289 66.1578 83.0131 61.7923 85.7865 55.1679 85.8488 46.2847 85.7865 37.6861 83.0131 31.2882 77.5289 27.0905 72.0447 22.8927 64.2233 20.8017 54.0652 20.8174L23.03 20.8174Z" fill="#FFFFFF" fill-rule="evenodd"/></g></g><path d="M712 393 765.065 393C781.901 393.085 794.866 396.981 803.96 404.69 813.054 412.398 817.653 423.409 817.757 437.723 817.715 448.248 815.373 457.109 810.732 464.305 806.091 471.502 799.407 476.802 790.679 480.206L820 524 794.979 524 771.048 484.319C770.109 484.408 769.136 484.463 768.127 484.482 767.118 484.502 766.097 484.51 765.065 484.506L734.03 484.506 734.03 524 712 524 712 393ZM734.03 412.817 734.03 464.689 765.065 464.689C775.223 464.7 783.045 462.523 788.529 458.158 794.013 453.792 796.786 447.168 796.849 438.285 796.786 429.686 794.013 423.288 788.529 419.091 783.045 414.893 775.223 412.802 765.065 412.817L734.03 412.817Z" fill="#FFFFFF" fill-rule="evenodd"/><g clip-path="url(#clip30)" filter="url(#fx8)" transform="translate(874 480)"><g clip-path="url(#clip31)"><path d="M46.3824 13.0402 6.93626 68.8597 0.684696 0.795547Z" fill="#FF6A00" fill-rule="evenodd"/></g></g><path d="M900.382 493.04 860.936 548.86 854.685 480.795Z" fill="#FF6A00" fill-rule="evenodd"/><g clip-path="url(#clip32)" filter="url(#fx9)" transform="translate(847 392)"><g clip-path="url(#clip33)"><path d="M1 1 54.505 1C67.6703 1.10487 79.3064 3.95005 89.4135 9.53554 99.5207 15.121 107.452 22.8182 113.206 32.6266 118.961 42.4351 121.892 53.7262 122 66.4999 121.892 79.2147 118.94 90.4781 113.144 100.29 107.348 110.102 99.3549 117.813 89.1647 123.423 78.9748 129.033 67.235 131.892 53.9455 132L1 132 1 1ZM22.9811 20.8174 22.9811 112.183 55.0647 112.183C68.0288 111.949 78.6612 107.689 86.9618 99.4048 95.2627 91.1199 99.5529 80.2141 99.8325 66.6872 99.5372 53.0626 95.1383 42.0711 86.6354 33.7124 78.1326 25.3535 67.2982 21.0553 54.1321 20.8174L22.9811 20.8174Z" fill="#FFFFFF" fill-rule="evenodd"/></g></g><path d="M828 393 881.505 393C894.67 393.105 906.306 395.95 916.414 401.536 926.521 407.121 934.452 414.818 940.206 424.627 945.961 434.435 948.892 445.726 949 458.5 948.892 471.215 945.94 482.478 940.144 492.29 934.348 502.102 926.355 509.813 916.165 515.423 905.975 521.033 894.235 523.892 880.945 524L828 524 828 393ZM849.981 412.817 849.981 504.183 882.065 504.183C895.029 503.949 905.661 499.689 913.962 491.405 922.263 483.12 926.553 472.214 926.832 458.687 926.537 445.063 922.138 434.071 913.635 425.712 905.133 417.354 894.298 413.055 881.132 412.817L849.981 412.817Z" fill="#FFFFFF" fill-rule="evenodd"/><g clip-path="url(#clip34)" filter="url(#fx10)" transform="translate(781 252)"><g clip-path="url(#clip35)"><path d="M1 1 23.1425 1 23.1425 57.9017 92.8575 57.9017 92.8575 1 115 1 115 132 92.8575 132 92.8575 77.719 23.1425 77.719 23.1425 132 1 132 1 1Z" fill="#FF6A00" fill-rule="evenodd"/></g></g><path d="M762 253 784.142 253 784.142 309.902 853.858 309.902 853.858 253 876 253 876 384 853.858 384 853.858 329.719 784.142 329.719 784.142 384 762 384 762 253Z" fill="#FF6A00" fill-rule="evenodd"/><g clip-path="url(#clip36)" filter="url(#fx11)" transform="translate(877 216)"><g clip-path="url(#clip37)"><path d="M68.3137 1.20457 114.011 13.4492 46.839 264.14 1.14135 251.895Z" fill="#FF6A00" fill-rule="evenodd"/></g></g><path d="M925.314 217.205 971.011 229.449 903.839 480.14 858.141 467.895Z" fill="#FF6A00" fill-rule="evenodd"/><g clip-path="url(#clip38)" filter="url(#fx12)" transform="translate(948 180)"><g clip-path="url(#clip39)"><path d="M7.00128 1.04973 52.699 13.2944 46.468 36.5487 0.770305 24.3041Z" fill="#FF6A00" fill-rule="evenodd"/></g></g><path d="M935.001 181.05 980.699 193.294 974.468 216.549 928.77 204.304Z" fill="#FF6A00" fill-rule="evenodd"/></g></svg>